# xmcd
#
# Track frame offsets:
#	180
#	11707
#	34612
#	56776
#	66678
#	92146
#	106062
#	127639
#	147554
#	165600
#
# Disc length: 2484 seconds
#
# Revision: 1
# Processed by: cddbd v1.5.1PL2 Copyright (c) Steve Scherf et al.
# Submitted via: audiograbber 1.83.01
#
DISCID=8809b20a
DTITLE=The Envoys - Joy!
DYEAR=1900
DGENRE=Country
TTITLE0=Someday
TTITLE1=Sheltered In The Arms of God
TTITLE2=In His Will (There Is A Way)
TTITLE3=The Race Is Over
TTITLE4=They Sing Glory
TTITLE5=Come Get A Drink From The Well
TTITLE6=Mount Moriah
TTITLE7=Set Sail
TTITLE8=I'm Free
TTITLE9=We Will Know Joy
EXTD=
EXTT0=
EXTT1=
EXTT2=
EXTT3=
EXTT4=
EXTT5=
EXTT6=
EXTT7=
EXTT8=
EXTT9=
PLAYORDER=
